# xmcd
#
# Track frame offsets:
#	180
#	14960
#	35992
#	51292
#	64615
#	79892
#	96605
#	116410
#	131570
#	146760
#	164500
#	180980
#	196905
#
# Disc length: 2895 seconds
#
# Revision: 0
# Processed by: cddbd v1.4PL0 Copyright (c) Steve Scherf et al.
# Submitted via: dBpowerAMP V4.0
#
DISCID=c30b4d0d
DTITLE=SUNRISE - Voyage en Amérique
DYEAR=1996
DGENRE=Country
TTITLE0=Voyage en Amérique
TTITLE1=Loin d'ici
TTITLE2=Métro dance
TTITLE3=Sexe à pile
TTITLE4=Des images
TTITLE5=Le cahier
TTITLE6=Sunrise soul
TTITLE7=Tout là-bas
TTITLE8=Bittle Luddha
TTITLE9=Femme en intérim
TTITLE10=Nikaïa Breakdown
TTITLE11=La danse du Bayou
TTITLE12=Une histoire pour la nuit
EXTD=
EXTT0=
EXTT1=
EXTT2=
EXTT3=
EXTT4=
EXTT5=
EXTT6=
EXTT7=
EXTT8=
EXTT9=
EXTT10=
EXTT11=
EXTT12=
PLAYORDER=
